<svg width="120" height="98" viewBox="0 0 120 98" fill="none" xmlns="http://www.w3.org/2000/svg">
<g id="Group 2">
<g id="Clip path group">
<mask id="mask0_17_11299" style="mask-type:luminance" maskUnits="userSpaceOnUse" x="33" y="0" width="73" height="98">
<g id="8cd0637eae">
<path id="Vector" d="M33.892 0H105.158V97.4672H33.892V0Z" fill="white"/>
</g>
</mask>
<g mask="url(#mask0_17_11299)">
<g id="Group">
<path id="Vector_2" d="M57.863 94.6888C57.8166 93.2723 59.9045 92.167 63.215 90.6304C64.8717 89.7898 66.8395 88.9273 68.9765 87.6555C71.1108 86.4301 73.4388 84.9672 75.7205 83.0212C80.2784 79.2303 84.7925 73.709 87.2161 66.5065C89.7598 59.1375 90.4066 50.3766 87.9585 41.8313C85.5103 33.2368 80.5677 25.9634 74.6151 20.947C71.6403 18.4033 68.447 16.3864 65.2565 14.8034C61.9923 13.2177 58.7745 12.0196 55.7505 11.1299C49.6807 9.37768 44.3995 8.82637 40.6304 8.39514C36.8641 8.01032 34.5824 7.65006 34.3422 6.66479C34.1021 5.70683 35.9525 4.12113 39.8881 2.68008C43.7991 1.28816 49.8963 0.0654504 57.5518 0.687721C61.3673 1.00159 65.5185 1.76851 69.8635 3.18499C74.2549 4.62604 78.7909 6.80944 83.1113 9.88259C87.4072 12.9557 91.4628 16.8913 94.8471 21.6211C98.2068 26.3482 100.895 31.774 102.576 37.7019C104.255 43.6326 104.831 49.7052 104.424 55.513C104.015 61.2991 102.623 66.7958 100.584 71.6429C98.5207 76.6375 95.614 80.9579 92.399 84.4623C89.1839 87.9666 85.6304 90.6549 82.1752 92.6227C78.7199 94.5905 75.3111 95.7914 72.3117 96.5119C69.3122 97.257 66.6239 97.3989 64.4869 97.3525C62.328 97.2325 60.6714 96.9186 59.566 96.3918C58.4388 95.8869 57.8875 95.3356 57.863 94.6888Z" fill="#9D738E"/>
</g>
</g>
</g>
<g id="Clip path group_2">
<mask id="mask1_17_11299" style="mask-type:luminance" maskUnits="userSpaceOnUse" x="57" y="28" width="39" height="70">
<g id="20d9caf032">
<path id="Vector_3" d="M57.6475 28.5725H95.3767V97.4672H57.6475V28.5725Z" fill="white"/>
</g>
</mask>
<g mask="url(#mask1_17_11299)">
<g id="Group_2">
<path id="Vector_4" d="M74.2304 93.799C76.3674 92.5763 78.6955 91.1107 80.9744 89.1675C85.535 85.3738 90.0465 79.8525 92.4728 72.6528C95.0164 65.2838 95.6633 56.5201 93.2151 47.9748C91.0072 40.2456 86.7823 33.5971 81.624 28.6762C84.3587 32.5409 86.5667 36.9595 87.9586 41.8313C90.4067 50.4011 89.7599 59.1375 87.2162 66.5065C84.7681 73.709 80.2785 79.2057 75.7206 83.0212C73.4389 84.9672 71.1109 86.4301 68.9766 87.6555C66.8396 88.9028 64.8718 89.7898 63.2151 90.6304C59.9045 92.1915 57.8167 93.2941 57.8631 94.6888C57.8876 95.3356 58.4389 95.8869 59.5443 96.3673C60.6469 96.8968 62.3036 97.1833 64.4624 97.328C65.3767 97.3525 66.3838 97.328 67.4646 97.2325C67.8003 97.0632 68.136 96.9186 68.4962 96.7521C70.1283 95.9361 72.1207 95.0463 74.2304 93.799Z" fill="#682860"/>
</g>
</g>
</g>
<path id="Vector_5" d="M45.6004 43.4879C45.8406 44.0392 45.4067 44.8089 44.6152 45.8651C43.7991 46.9186 42.6965 48.3842 41.7604 50.3275C41.3046 51.3127 40.8952 52.4181 40.6086 53.6408C40.3685 54.8662 40.2238 56.209 40.3439 57.6009C40.4394 58.9928 40.7751 60.4339 41.4247 61.8013C41.5912 62.1397 41.7822 62.4754 41.9514 62.8356C42.167 63.1959 42.4072 63.5534 42.6228 63.9137C42.8166 64.2985 43.1523 64.5878 43.3925 64.9481C43.6327 65.3056 43.9438 65.6195 44.2549 65.9306C46.6321 68.4989 50.1829 70.4202 54.143 70.7068C56.1108 70.8515 58.1523 70.6113 60.1201 69.9399C60.6223 69.8198 61.0781 69.5305 61.5584 69.3395C62.0388 69.1239 62.5437 68.7882 63.0486 68.5234C63.5753 68.2832 64.0066 67.8984 64.4869 67.5873C64.9918 67.2761 65.423 66.8913 65.8543 66.5065C69.4078 63.4825 71.9269 58.9219 72.4072 53.9055C72.6719 51.4082 72.4072 48.84 71.6403 46.3673C70.8952 43.9683 69.4323 41.3755 67.7511 39.143C64.3423 34.6069 59.3504 31.5829 54.1676 30.1419C51.5748 29.3968 48.8865 29.2057 46.3182 29.3013C45.0246 29.3013 43.7527 29.566 42.4782 29.7325C41.2555 30.0682 39.9836 30.2865 38.8319 30.7887C34.0066 32.5654 29.5906 35.3984 26.28 38.7827C22.9203 42.167 20.423 46.007 18.7446 49.8007C17.0142 53.5944 16.1763 57.3608 15.7424 60.745C15.4558 62.4263 15.4804 64.0338 15.3821 65.524C15.3357 67.0114 15.4804 68.3542 15.4804 69.6288C15.6005 70.8515 15.7424 71.9568 15.7915 72.9639C15.8406 73.9492 16.0317 74.7652 16.0781 75.4612C16.1982 76.8531 16.0781 77.6937 15.696 77.8848C15.2866 78.0758 14.6398 77.5736 13.7036 76.3973C13.2724 75.7969 12.672 75.0764 12.2162 74.1157C11.7358 73.155 11.1845 72.0278 10.655 70.7314C10.2484 69.3886 9.69434 67.8984 9.33408 66.2199C9.02294 64.5141 8.63812 62.6664 8.56716 60.6249C8.32698 56.5693 8.61628 51.7931 10.1501 46.7767C11.6403 41.7603 14.2795 36.4546 18.3106 31.6293C22.3444 26.7822 27.7675 22.5791 34.4405 19.6997C36.119 18.9082 37.9203 18.4279 39.7435 17.8766C41.5912 17.4918 43.488 17.0605 45.4312 16.9405C49.2959 16.602 53.327 16.7958 57.2871 17.7783C65.1365 19.6752 72.8166 24.2358 78.0704 31.149C78.7664 31.965 79.3423 32.8766 79.9427 33.7909L80.8079 35.1337C81.0726 35.5895 81.3128 36.0698 81.5502 36.5502C82.56 38.3979 83.4471 40.4394 84.0721 42.5272C85.3439 46.7276 85.7041 51.1217 85.1992 55.322C84.2167 63.7718 79.7025 71.2609 73.6326 76.0125C72.863 76.6129 72.1206 77.1888 71.3046 77.6937C70.4885 78.1959 69.7189 78.7254 68.8564 79.1102C68.0158 79.5169 67.2243 79.9481 66.31 80.3083C65.3985 80.6222 64.536 81.0289 63.5999 81.2445C59.9509 82.2789 56.1845 82.4699 52.7047 81.9186C45.696 80.8378 39.9591 76.8777 36.5284 72.1724C36.0944 71.5966 35.6632 70.9961 35.3275 70.3711C34.9918 69.7489 34.5824 69.1703 34.3204 68.548C34.0311 67.923 33.7664 67.298 33.4798 66.7003C33.2642 66.0507 33.0486 65.3793 32.8303 64.7543C32.1125 62.1397 31.9678 59.5687 32.2325 57.2652C32.4946 54.9372 33.1905 52.8957 34.0311 51.1435C34.9181 49.3913 35.9744 47.9994 37.0306 46.8477C39.2167 44.6151 41.4001 43.5343 42.9367 43.1741C44.4951 42.8165 45.3821 43.0076 45.6004 43.4879Z" fill="#FFBF6C"/>
<path id="Vector_6" d="M84.0475 42.5982C83.4225 40.5103 82.5355 38.447 81.5284 36.6212C81.2882 36.1435 81.048 35.6632 80.7833 35.2074L79.9181 33.8619C79.3204 32.9749 78.7664 32.0387 78.0486 31.2227C72.792 24.3095 65.1119 19.7489 57.2626 17.8521C53.327 16.8668 49.2959 16.6757 45.4067 17.0114C43.4634 17.1315 41.5666 17.5628 39.7189 17.9476C37.8957 18.4989 36.0944 18.9792 34.4159 19.7707C27.7675 22.6528 22.3199 26.8531 18.2888 31.7003C16.4875 33.8619 14.9509 36.1435 13.7036 38.4225C14.5197 37.2216 15.3821 36.0453 16.3428 34.8935C20.3766 30.0464 25.7997 25.846 32.4727 22.964C34.1512 22.1725 35.9525 21.6921 37.7757 21.1408C39.6234 20.756 41.5202 20.3248 43.4634 20.2047C47.3281 19.869 51.3592 20.06 55.3193 21.0453C63.1687 22.9394 70.8461 27.5 76.1026 34.4132C76.7986 35.2292 77.3745 36.1435 77.9749 37.0551L78.8401 38.3979C79.1021 38.8537 79.3422 39.334 79.5824 39.8144C80.5922 41.6621 81.4793 43.7036 82.1043 45.7915C83.3761 49.9918 83.7364 54.3859 83.2314 58.5862C82.7757 62.4972 81.5502 66.1954 79.8008 69.5087C82.631 65.4503 84.5742 60.5786 85.1992 55.3684C85.7041 51.1927 85.3439 46.7767 84.0475 42.5982Z" fill="#FF7E3D"/>
<path id="Vector_7" d="M55.5104 65.906C55.3684 64.8498 57.9121 64.0829 60.5513 61.5392C60.8624 61.2253 61.1981 60.8651 61.512 60.5048C61.7986 60.1473 62.0879 59.7625 62.3745 59.3312C62.9285 58.4415 63.4552 57.4098 63.8155 56.329C64.1758 55.2483 64.3422 54.0965 64.2003 53.2805C64.0311 52.4399 63.8155 52.0796 62.9995 51.6484C62.1343 51.1435 61.3674 51.1216 60.5759 51.3618C60.3821 51.4328 60.1665 51.5037 59.9754 51.6238C59.8799 51.6729 59.7844 51.7193 59.6861 51.8176L59.5906 51.8885C59.4705 51.9595 59.4487 52.0086 59.3504 52.0796C59.2085 52.1997 59.0884 52.3689 58.9438 52.5135C57.9121 53.7117 56.9023 55.1527 56.0398 56.209C55.4148 55.1773 54.7926 54.1456 54.1921 53.1358C53.9028 52.6091 53.5917 52.2488 53.2806 51.8394L53.1605 51.7193C53.1359 51.6729 53.0404 51.6238 53.0404 51.6238L52.9667 51.5528C52.9203 51.5037 52.8466 51.4573 52.8002 51.4082C52.3444 51.0234 51.815 50.7614 51.2882 50.6167C50.232 50.3274 49.2467 50.5458 48.3843 51.0015C46.6785 51.9377 46.1026 53.376 45.5513 53.305C45.2866 53.2805 45 52.8738 45 52.0332C45 51.2171 45.2866 49.9671 46.3182 48.7199C46.8231 48.1194 47.5437 47.4972 48.4552 47.0387C49.3668 46.5829 50.5186 46.3209 51.7194 46.3427C52.9203 46.3673 54.1676 46.703 55.3439 47.3525C55.4885 47.4235 55.6305 47.519 55.7751 47.6173L55.9907 47.7592C56.0644 47.8083 56.0153 47.7592 56.0153 47.7837H56.0398L56.1354 47.8083C56.1845 47.8083 56.2309 47.8329 56.2555 47.8329C56.28 47.7592 56.3264 47.6637 56.3264 47.6173V47.5927C56.3264 47.5927 56.351 47.5681 56.3046 47.5927L56.4465 47.4726C56.6621 47.3034 56.8805 47.1369 57.1206 46.9923C57.5764 46.6811 58.0786 46.4164 58.6326 46.2008C60.7915 45.2865 63.6463 45.4311 65.7342 46.6811C66.7904 47.2079 67.8002 48.0949 68.5426 49.1293C69.2167 50.2073 69.6943 51.4328 69.768 52.5381C70.0082 54.7925 69.4787 56.6402 68.8319 58.2013C68.1605 59.7625 67.3199 61.0834 66.3592 62.2352C65.8788 62.811 65.3766 63.3132 64.8226 63.7936C64.2958 64.2494 63.7664 64.6096 63.2151 64.948C61.0781 66.2417 59.0884 66.6757 57.7429 66.6757C56.3046 66.7466 55.5595 66.3618 55.5104 65.906Z" fill="#9D738E"/>
<g id="Clip path group_3">
<mask id="mask2_17_11299" style="mask-type:luminance" maskUnits="userSpaceOnUse" x="98" y="8" width="22" height="22">
<g id="cdc2b210eb">
<path id="Vector_8" d="M98.8701 8.31061H120V29.97H98.8701V8.31061Z" fill="white"/>
</g>
</mask>
<g mask="url(#mask2_17_11299)">
<g id="Group_3">
<path id="Vector_9" d="M120 19.315C120 19.9946 119.934 20.6688 119.801 21.3347C119.667 22.0006 119.473 22.6475 119.211 23.2752C118.952 23.9029 118.633 24.4979 118.256 25.0629C117.879 25.6278 117.451 26.1518 116.97 26.6322C116.49 27.1125 115.966 27.541 115.401 27.9177C114.836 28.2943 114.241 28.6136 113.613 28.8729C112.986 29.1349 112.339 29.3314 111.673 29.4624C111.007 29.5962 110.336 29.6617 109.656 29.6617C108.976 29.6617 108.302 29.5962 107.636 29.4624C106.97 29.3314 106.324 29.1349 105.696 28.8729C105.068 28.6136 104.473 28.2943 103.908 27.9177C103.343 27.541 102.822 27.1125 102.342 26.6322C101.861 26.1518 101.433 25.6278 101.053 25.0629C100.677 24.4979 100.357 23.9029 100.098 23.2752C99.8389 22.6475 99.6424 22.0006 99.5114 21.3347C99.3776 20.6688 99.3121 19.9946 99.3121 19.315C99.3121 18.6355 99.3776 17.9641 99.5114 17.2981C99.6424 16.6322 99.8389 15.9854 100.098 15.3576C100.357 14.7299 100.677 14.1322 101.053 13.5672C101.433 13.0023 101.861 12.481 102.342 12.0006C102.822 11.5203 103.343 11.0918 103.908 10.7124C104.473 10.3358 105.068 10.0165 105.696 9.75719C106.324 9.49791 106.97 9.3014 107.636 9.16767C108.302 9.03666 108.976 8.97116 109.656 8.97116C110.336 8.97116 111.007 9.03666 111.673 9.16767C112.339 9.3014 112.986 9.49791 113.613 9.75719C114.241 10.0165 114.836 10.3358 115.401 10.7124C115.966 11.0918 116.49 11.5203 116.97 12.0006C117.451 12.481 117.879 13.0023 118.256 13.5672C118.633 14.1322 118.952 14.7299 119.211 15.3576C119.473 15.9854 119.667 16.6322 119.801 17.2981C119.934 17.9641 120 18.6355 120 19.315Z" fill="#9D738E"/>
</g>
</g>
</g>
<g id="Clip path group_4">
<mask id="mask3_17_11299" style="mask-type:luminance" maskUnits="userSpaceOnUse" x="0" y="8" width="23" height="24">
<g id="64aae1f884">
<path id="Vector_10" d="M0 8.31061H22.0142V31.3674H0V8.31061Z" fill="white"/>
</g>
</mask>
<g mask="url(#mask3_17_11299)">
<g id="Group_4">
<path id="Vector_11" d="M21.9842 19.6999C21.9842 20.4204 21.9132 21.1355 21.7713 21.8451C21.6321 22.552 21.4219 23.2397 21.1463 23.9057C20.8706 24.5744 20.5322 25.2075 20.131 25.808C19.7298 26.4084 19.274 26.9625 18.7636 27.4728C18.2533 27.9832 17.6992 28.439 17.0988 28.8402C16.4984 29.2414 15.8652 29.5798 15.1965 29.8555C14.5306 30.1339 13.8428 30.3413 13.1359 30.4832C12.429 30.6224 11.714 30.6934 10.9907 30.6934C10.2702 30.6934 9.55513 30.6224 8.84825 30.4832C8.13864 30.3413 7.45087 30.1339 6.78493 29.8555C6.11899 29.5798 5.48581 29.2414 4.88537 28.8402C4.28493 28.439 3.72817 27.9832 3.21779 27.4728C2.70742 26.9625 2.25164 26.4084 1.85317 25.808C1.45196 25.2075 1.11354 24.5744 0.835153 23.9057C0.559498 23.2397 0.352074 22.552 0.210153 21.8451C0.0709605 21.1355 0 20.4204 0 19.6999C0 18.9766 0.0709605 18.2643 0.210153 17.5547C0.352074 16.8478 0.559498 16.1601 0.835153 15.4914C1.11354 14.8254 1.45196 14.1923 1.85317 13.5918C2.25164 12.9914 2.70742 12.4373 3.21779 11.927C3.72817 11.4166 4.28493 10.9608 4.88537 10.5596C5.48581 10.1584 6.11899 9.81999 6.78493 9.5416C7.45087 9.26595 8.13864 9.05852 8.84825 8.9166C9.55513 8.77741 10.2702 8.70645 10.9907 8.70645C11.714 8.70645 12.429 8.77741 13.1359 8.9166C13.8428 9.05852 14.5306 9.26595 15.1965 9.5416C15.8652 9.81999 16.4984 10.1584 17.0988 10.5596C17.6992 10.9608 18.2533 11.4166 18.7636 11.927C19.274 12.4373 19.7298 12.9914 20.131 13.5918C20.5322 14.1923 20.8706 14.8254 21.1463 15.4914C21.4219 16.1601 21.6321 16.8478 21.7713 17.5547C21.9132 18.2643 21.9842 18.9766 21.9842 19.6999Z" fill="#FFBF6C"/>
</g>
</g>
</g>
<path id="Vector_12" d="M38.6381 58.0104C38.4007 59.2331 38.256 60.5786 38.3761 61.9705C38.4717 63.3624 38.8074 64.8035 39.4542 66.1708C39.6234 66.5065 39.8144 66.8422 39.9837 67.2025C40.1993 67.5628 40.4394 67.923 40.6551 68.2833C40.8461 68.6681 41.1845 68.9547 41.4247 69.3149C41.6622 69.6752 41.976 69.9863 42.2872 70.3002C44.6643 72.8684 48.2151 74.7871 52.1753 75.0764C54.143 75.2211 56.1845 74.9809 58.1523 74.3095C58.6545 74.1894 59.1103 73.9001 59.5906 73.7091C60.071 73.4934 60.5759 73.155 61.0781 72.893C61.6076 72.6528 62.0388 72.268 62.5191 71.9569C63.0241 71.643 63.4553 71.2609 63.8865 70.8761C66.5503 68.619 68.6381 65.4749 69.7189 61.9214C68.6627 63.6736 67.3445 65.2593 65.8543 66.5311C65.4231 66.9159 64.9918 67.298 64.4869 67.6119C64.0066 67.923 63.5754 68.3079 63.0486 68.548C62.5437 68.8128 62.0388 69.1485 61.5584 69.3641C61.0781 69.5551 60.6223 69.8444 60.1201 69.9645C58.1742 70.6359 56.1354 70.9006 54.143 70.7314C50.1829 70.4449 46.6321 68.5235 44.2549 65.9552C43.9438 65.6441 43.6327 65.3302 43.3925 64.97C43.1523 64.6097 42.8385 64.2986 42.6229 63.9383C42.3827 63.578 42.1671 63.2178 41.9515 62.8575C41.7822 62.5218 41.5912 62.1616 41.4247 61.8259C40.7997 60.4339 40.464 59.0175 40.3439 57.6255C40.2484 56.2336 40.3685 54.8881 40.6087 53.6654C40.6796 53.3543 40.7751 53.065 40.8707 52.7538C40.5104 53.3297 40.1501 53.952 39.7926 54.6725C39.3341 55.6577 38.9274 56.7604 38.6381 58.0104Z" fill="#FF7E3D"/>
</g>
</svg>
